<?xml version="1.0" encoding="UTF-8"?>
<svg data-bbox="0 0 395 395" xmlns="http://www.w3.org/2000/svg" viewBox="0 0 395 395" height="395" width="395" data-type="color">
    <g>
        <path fill="#FF4E00" d="M395 197.5C395 306.576 306.576 395 197.5 395S0 306.576 0 197.5 88.424 0 197.5 0 395 88.424 395 197.5" data-color="1"/>
        <path fill="#FFF9F3" d="M107.59 250.28v-74.36h15.62v17.93h.77q1.21-6.49 3.63-10.78 2.42-4.4 6.16-6.49 3.85-2.2 9.24-2.2 6.82 0 11.55 3.52 4.84 3.41 7.26 10.23 2.53 6.71 2.53 16.61 0 10.67-2.86 17.49-2.75 6.82-7.59 10.12-4.84 3.19-11 3.19-4.95 0-8.8-2.09-3.74-2.09-6.27-6.38-2.42-4.4-3.41-11h-.99q.55 3.19.99 6.71.44 3.41.66 6.82.33 3.3.33 6.38v14.3zm28.6-29.37q3.52 0 5.72-2.2 2.31-2.2 3.3-5.72 1.1-3.63 1.1-7.59 0-4.4-1.21-7.92-1.1-3.63-3.41-5.72-2.2-2.2-5.5-2.2-2.09 0-4.07.99-1.98.88-3.52 2.86-1.54 1.87-2.53 4.84-.88 2.97-.88 7.15v.66q0 3.3.66 5.72t1.76 4.18 2.53 2.86 2.97 1.65q1.54.44 3.08.44m61.624 14.63q-8.36 0-14.85-3.3-6.49-3.41-10.12-10.12-3.63-6.82-3.63-17.05 0-10.67 3.74-17.38 3.85-6.82 10.34-10.01 6.6-3.3 14.85-3.3 8.58 0 14.96 3.41 6.49 3.3 10.01 10.12 3.63 6.71 3.63 17.05 0 10.67-3.85 17.49-3.74 6.71-10.34 9.9-6.49 3.19-14.74 3.19m.44-13.09q3.41 0 5.72-1.87 2.31-1.98 3.52-5.72t1.21-8.91q0-5.72-1.32-9.57-1.32-3.96-3.85-6.05-2.42-2.09-5.94-2.09-3.3 0-5.61 1.98-2.31 1.87-3.52 5.61t-1.21 9.02q0 8.36 2.86 12.98 2.97 4.62 8.14 4.62m34.912 27.83v-74.36h15.62v17.93h.77q1.21-6.49 3.63-10.78 2.42-4.4 6.16-6.49 3.85-2.2 9.24-2.2 6.82 0 11.55 3.52 4.84 3.41 7.26 10.23 2.53 6.71 2.53 16.61 0 10.67-2.86 17.49-2.75 6.82-7.59 10.12-4.84 3.19-11 3.19-4.95 0-8.8-2.09-3.74-2.09-6.27-6.38-2.42-4.4-3.41-11h-.99q.55 3.19.99 6.71.44 3.41.66 6.82.33 3.3.33 6.38v14.3zm28.6-29.37q3.52 0 5.72-2.2 2.31-2.2 3.3-5.72 1.1-3.63 1.1-7.59 0-4.4-1.21-7.92-1.1-3.63-3.41-5.72-2.2-2.2-5.5-2.2-2.09 0-4.07.99-1.98.88-3.52 2.86-1.54 1.87-2.53 4.84-.88 2.97-.88 7.15v.66q0 3.3.66 5.72t1.76 4.18 2.53 2.86 2.97 1.65q1.54.44 3.08.44" data-color="2"/>
    </g>
</svg>
